<svg width="30" height="30" viewBox="0 0 30 30" fill="none" xmlns="http://www.w3.org/2000/svg">
<path fill-rule="evenodd" clip-rule="evenodd" d="M22.201 3.77472C22.201 1.82963 23.7805 0.250153 25.7256 0.250153C27.6707 0.250153 29.2502 1.82963 29.2502 3.77472C29.2502 5.71982 27.6707 7.2993 25.7256 7.2993C23.7805 7.2993 22.201 5.71982 22.201 3.77472ZM16.5702 18.9104L20.7969 13.4568L20.7384 13.4861C20.9724 13.1643 21.0162 12.7548 20.8554 12.3892C20.6959 12.0236 20.3435 11.7749 19.9647 11.7457C19.5684 11.7018 19.1749 11.8773 18.9395 12.1991L15.4017 16.7766L11.3491 13.5883C11.1004 13.3983 10.8079 13.3237 10.5154 13.3544C10.2244 13.3983 9.96115 13.5577 9.78419 13.7916L5.45662 19.4237L5.36741 19.5553C5.11878 20.0219 5.23578 20.6215 5.67453 20.9447C5.87928 21.0763 6.09866 21.1641 6.34729 21.1641C6.68513 21.1787 7.00542 21.0017 7.21017 20.7253L10.8811 16L15.0492 19.1312L15.1809 19.2175C15.6489 19.4661 16.2339 19.3506 16.5702 18.9104ZM19.6707 2.85379C19.6122 3.21941 19.583 3.58502 19.583 3.95065C19.583 7.24123 22.2447 9.90148 25.5207 9.90148C25.8864 9.90148 26.2374 9.85907 26.6031 9.80057V21.6013C26.6031 26.5606 23.678 29.5001 18.7055 29.5001H7.89901C2.92502 29.5001 0 26.5606 0 21.6013V10.7804C0 5.80799 2.92502 2.85379 7.89901 2.85379H19.6707Z" fill="#0059F7"/>
</svg>
